<svg width="20" height="20" viewBox="0 0 20 20" fill="none" xmlns="http://www.w3.org/2000/svg">
<g clip-path="url(#clip0_1122_3869)">
<path d="M19.1717 7.58131L17.6627 7.25326C17.5314 6.85152 17.3689 6.45966 17.177 6.08218L18.0124 4.78273C18.1616 4.55055 18.1288 4.24572 17.9338 4.05069L15.5829 1.69985C15.3879 1.50482 15.0831 1.47201 14.8509 1.62121L13.5514 2.4566C13.174 2.26472 12.7821 2.10219 12.3804 1.97097L12.0523 0.461961C11.9938 0.192334 11.755 0 11.4791 0H8.15456C7.87865 0 7.63988 0.192334 7.58131 0.461961L7.25326 1.97097C6.85152 2.10219 6.45966 2.26472 6.08218 2.4566L4.78273 1.62121C4.55055 1.47201 4.24572 1.50482 4.05069 1.69985L1.69985 4.05069C1.50482 4.24572 1.47201 4.55055 1.62121 4.78273L2.4566 6.08218C2.26472 6.45966 2.10219 6.85152 1.97097 7.25326L0.461961 7.58131C0.192334 7.64003 0 7.87865 0 8.15456V11.4791C0 11.755 0.192334 11.9936 0.461961 12.0523L1.97097 12.3804C2.10219 12.7821 2.26472 13.174 2.4566 13.5514L1.62121 14.8509C1.47201 15.0831 1.50482 15.3879 1.69985 15.5829L4.05069 17.9338C4.24572 18.1288 4.55055 18.1616 4.78273 18.0124L6.08218 17.177C6.45966 17.3689 6.85152 17.5314 7.25326 17.6627L7.58131 19.1717C7.63988 19.4413 7.87865 19.6336 8.15456 19.6336H11.4791C11.755 19.6336 11.9938 19.4413 12.0523 19.1717L12.3804 17.6627C12.7821 17.5314 13.174 17.3689 13.5514 17.177L14.8509 18.0124C15.0831 18.1616 15.3879 18.129 15.5829 17.9338L17.9338 15.5829C18.1288 15.3879 18.1616 15.0831 18.0124 14.8509L17.177 13.5514C17.3689 13.174 17.5314 12.7821 17.6627 12.3804L19.1717 12.0523C19.4413 11.9936 19.6336 11.755 19.6336 11.4791V8.15456C19.6336 7.87865 19.4413 7.64003 19.1717 7.58131ZM18.4603 11.0062L17.0767 11.307C16.8641 11.3532 16.6945 11.5132 16.6361 11.7226C16.4841 12.268 16.2654 12.7954 15.9862 13.2902C15.8792 13.4797 15.8858 13.7128 16.0036 13.8958L16.7697 15.0876L15.0877 16.7697L13.8958 16.0036C13.7128 15.8858 13.4797 15.8792 13.2904 15.9862C12.7954 16.2654 12.268 16.4841 11.7226 16.6361C11.5132 16.6945 11.3532 16.8641 11.307 17.0767L11.0062 18.4603H8.62746L8.32668 17.0767C8.28039 16.8641 8.12041 16.6945 7.911 16.6361C7.36561 16.4841 6.83819 16.2654 6.34342 15.9862C6.15393 15.8792 5.92086 15.886 5.73781 16.0036L4.54606 16.7697L2.86404 15.0876L3.63008 13.8958C3.74781 13.7128 3.75455 13.4797 3.6476 13.2902C3.36839 12.7954 3.14969 12.268 2.9975 11.7226C2.93908 11.5132 2.76967 11.3532 2.55711 11.307L1.17333 11.0062V8.62746L2.55696 8.32668C2.76952 8.28039 2.93908 8.12041 2.9975 7.911C3.14954 7.36561 3.36824 6.83819 3.64745 6.34342C3.7544 6.15393 3.74781 5.92086 3.63008 5.73781L2.86389 4.54606L4.54591 2.86389L5.73781 3.63008C5.92086 3.74781 6.15393 3.7544 6.34327 3.64745C6.83819 3.36824 7.36561 3.14954 7.911 2.9975C8.12041 2.93908 8.28039 2.76952 8.32668 2.55696L8.62746 1.17333H11.0062L11.307 2.55696C11.3532 2.76952 11.5132 2.93908 11.7226 2.9975C12.268 3.14954 12.7954 3.36824 13.2902 3.64745C13.4797 3.7544 13.7128 3.74766 13.8958 3.63008L15.0876 2.86389L16.7696 4.54606L16.0036 5.73781C15.8858 5.92086 15.8791 6.15393 15.986 6.34342C16.2654 6.83819 16.4839 7.36561 16.6361 7.911C16.6945 8.12041 16.864 8.28039 17.0765 8.32668L18.4603 8.62746V11.0062Z" fill="white"/>
<path d="M13.2002 6.43164H6.43861L6.43323 7.79154H11.8504V11.8125H7.76114V8.10801L6.43323 9.10705V13.2025H13.2002V6.43164Z" fill="white"/>
</g>
<defs>
<clipPath id="clip0_1122_3869">
<rect width="19.6336" height="19.6336" fill="white"/>
</clipPath>
</defs>
</svg>
