<svg width="352" height="586" viewBox="0 0 352 586" fill="none" xmlns="http://www.w3.org/2000/svg" xmlns:xlink="http://www.w3.org/1999/xlink">
<g clip-path="url(#clip0_507_1086)">
<rect width="352" height="586" rx="25" fill="url(#pattern0_507_1086)" fill-opacity="0.1"/>
</g>
<rect x="0.5" y="0.5" width="351" height="585" rx="24.5" stroke="#89AF20" stroke-opacity="0.2"/>
<defs>
<clipPath id="clip0_507_1086">
<rect width="352" height="586" rx="25" fill="white"/>
</clipPath>
<pattern id="pattern0_507_1086" patternUnits="userSpaceOnUse" patternTransform="matrix(102.6 0 0 50.4 0 0)" preserveAspectRatio="none" viewBox="0 0 285 140" width="1" height="1">
<use xlink:href="#pattern0_507_1086_inner" transform="translate(-285 0)"/>
<g id="pattern0_507_1086_inner">
<path d="M70.0232 31.1625L74.8775 31.1625C74.8128 32.5679 74.4337 33.8069 73.7402 34.8794C73.0467 35.952 72.0851 36.7888 70.8554 37.3898C69.6349 37.9815 68.1925 38.2774 66.5282 38.2774C65.1782 38.2774 63.9716 38.0509 62.9083 37.5978C61.8542 37.1447 60.9574 36.4929 60.2177 35.6422C59.4872 34.7916 58.9278 33.7606 58.5395 32.5494C58.1604 31.3381 57.9708 29.9743 57.9708 28.4579V27.3623C57.9708 25.8459 58.1696 24.4821 58.5672 23.2708C58.9741 22.0503 59.5473 21.0148 60.287 20.1641C61.036 19.3042 61.9328 18.6478 62.9777 18.1947C64.0225 17.7416 65.1829 17.5151 66.4588 17.5151C68.2156 17.5151 69.6996 17.8295 70.9109 18.4582C72.1221 19.0869 73.0606 19.9515 73.7263 21.0518C74.3921 22.1428 74.785 23.3864 74.9052 24.7826L70.051 24.7826C70.0325 24.0244 69.903 23.391 69.6626 22.8825C69.4222 22.3647 69.0431 21.9764 68.5254 21.7175C68.0076 21.4586 67.3187 21.3291 66.4588 21.3291C65.8578 21.3291 65.3354 21.4401 64.8916 21.662C64.4478 21.8839 64.0779 22.2353 63.7821 22.7161C63.4862 23.1969 63.2643 23.821 63.1163 24.5884C62.9777 25.3466 62.9083 26.262 62.9083 27.3345V28.4579C62.9083 29.5305 62.973 30.4459 63.1025 31.2041C63.2319 31.9622 63.44 32.5817 63.7266 33.0625C64.0132 33.5433 64.3831 33.8993 64.8361 34.1305C65.2984 34.3524 65.8625 34.4633 66.5282 34.4633C67.2679 34.4633 67.892 34.3478 68.4005 34.1166C68.9091 33.8762 69.302 33.5156 69.5794 33.0348C69.8568 32.5448 70.0047 31.9206 70.0232 31.1625ZM87.6307 22.0503L82.7071 38L77.4784 38L84.8985 17.8064L88.2132 17.8064L87.6307 22.0503ZM91.7083 38L86.7708 22.0503L86.1329 17.8064L89.4892 17.8064L96.9509 38L91.7083 38ZM91.5141 30.469V34.2276L81.1538 34.2276L81.1538 30.469L91.5141 30.469ZM108.387 31.1486L103.366 31.1486V27.39L108.387 27.39C109.071 27.39 109.626 27.2744 110.051 27.0433C110.476 26.8121 110.786 26.4931 110.98 26.0863C111.184 25.6702 111.285 25.2033 111.285 24.6855C111.285 24.1307 111.184 23.6176 110.98 23.146C110.786 22.6745 110.476 22.2954 110.051 22.0087C109.626 21.7129 109.071 21.5649 108.387 21.5649L105.197 21.5649L105.197 38L100.329 38L100.329 17.8064L108.387 17.8064C110.005 17.8064 111.396 18.1022 112.561 18.694C113.735 19.2857 114.637 20.0994 115.266 21.135C115.894 22.1613 116.209 23.3356 116.209 24.6578C116.209 25.9615 115.894 27.0988 115.266 28.0696C114.637 29.0405 113.735 29.7986 112.561 30.3442C111.396 30.8804 110.005 31.1486 108.387 31.1486ZM130.502 17.8064L130.502 38L125.633 38L125.633 17.8064L130.502 17.8064ZM136.576 17.8064V21.5649L119.697 21.5649V17.8064L136.576 17.8064ZM157.229 22.0503L152.305 38L147.076 38L154.496 17.8064L157.811 17.8064L157.229 22.0503ZM161.306 38L156.369 22.0503L155.731 17.8064L159.087 17.8064L166.549 38L161.306 38ZM161.112 30.469L161.112 34.2276L150.752 34.2276L150.752 30.469L161.112 30.469ZM172.34 17.8064L176.306 17.8064L180.814 31.8559L185.321 17.8064L189.288 17.8064L182.423 38L179.205 38L172.34 17.8064ZM169.926 17.8064L174.032 17.8064L174.794 33.2844V38L169.926 38L169.926 17.8064ZM187.596 17.8064L191.715 17.8064L191.715 38L186.833 38L186.833 33.2844L187.596 17.8064ZM213.816 27.501V28.3193C213.816 29.8634 213.599 31.2503 213.164 32.48C212.739 33.7005 212.133 34.7453 211.347 35.6145C210.561 36.4744 209.632 37.1355 208.56 37.5978C207.487 38.0509 206.304 38.2774 205.009 38.2774C203.705 38.2774 202.513 38.0509 201.431 37.5978C200.358 37.1355 199.424 36.4744 198.629 35.6145C197.843 34.7453 197.233 33.7005 196.799 32.48C196.373 31.2503 196.161 29.8634 196.161 28.3193V27.501C196.161 25.9569 196.373 24.5699 196.799 23.3402C197.233 22.1104 197.839 21.0656 198.615 20.2057C199.401 19.3366 200.331 18.6755 201.403 18.2224C202.485 17.7601 203.678 17.529 204.981 17.529C206.276 17.529 207.459 17.7601 208.532 18.2224C209.614 18.6755 210.548 19.3366 211.333 20.2057C212.119 21.0656 212.73 22.1104 213.164 23.3402C213.599 24.5699 213.816 25.9569 213.816 27.501ZM208.879 28.3193V27.4732C208.879 26.4746 208.791 25.5963 208.615 24.8381C208.449 24.0706 208.199 23.428 207.866 22.9102C207.533 22.3925 207.122 22.0041 206.632 21.7452C206.151 21.4771 205.601 21.343 204.981 21.343C204.334 21.343 203.77 21.4771 203.289 21.7452C202.809 22.0041 202.406 22.3925 202.083 22.9102C201.759 23.428 201.514 24.0706 201.348 24.8381C201.19 25.5963 201.112 26.4746 201.112 27.4732V28.3193C201.112 29.3086 201.19 30.187 201.348 30.9544C201.514 31.7126 201.759 32.3552 202.083 32.8822C202.416 33.4093 202.822 33.8069 203.303 34.075C203.793 34.3431 204.362 34.4772 205.009 34.4772C205.629 34.4772 206.179 34.3431 206.66 34.075C207.14 33.8069 207.543 33.4093 207.866 32.8822C208.199 32.3552 208.449 31.7126 208.615 30.9544C208.791 30.187 208.879 29.3086 208.879 28.3193ZM228.636 32.6326C228.636 32.3182 228.59 32.0362 228.497 31.7866C228.405 31.5277 228.234 31.2873 227.984 31.0654C227.734 30.8435 227.374 30.6216 226.902 30.3996C226.44 30.1685 225.83 29.9281 225.071 29.6784C224.184 29.3826 223.329 29.0497 222.506 28.6799C221.683 28.3008 220.948 27.8616 220.3 27.3623C219.653 26.8537 219.14 26.262 218.761 25.587C218.382 24.9028 218.192 24.1076 218.192 23.2015C218.192 22.3324 218.386 21.5511 218.775 20.8576C219.163 20.1549 219.704 19.5585 220.398 19.0685C221.1 18.5692 221.923 18.1901 222.866 17.9312C223.809 17.663 224.84 17.529 225.959 17.529C227.438 17.529 228.742 17.7879 229.87 18.3056C231.008 18.8142 231.895 19.54 232.533 20.4831C233.18 21.417 233.504 22.5219 233.504 23.7979L228.664 23.7979C228.664 23.2893 228.557 22.8409 228.345 22.4526C228.141 22.0642 227.831 21.7591 227.415 21.5372C226.999 21.3153 226.477 21.2043 225.848 21.2043C225.238 21.2043 224.725 21.2968 224.309 21.4817C223.893 21.6666 223.578 21.9163 223.366 22.2306C223.153 22.5358 223.047 22.8733 223.047 23.2431C223.047 23.5482 223.13 23.8256 223.296 24.0753C223.472 24.3157 223.717 24.5422 224.031 24.7549C224.355 24.9675 224.743 25.1709 225.196 25.3651C225.659 25.5593 226.176 25.7488 226.75 25.9337C227.822 26.2758 228.775 26.6596 229.607 27.0849C230.448 27.501 231.155 27.9771 231.729 28.5134C232.311 29.0405 232.75 29.6415 233.046 30.3164C233.351 30.9914 233.504 31.7542 233.504 32.6049C233.504 33.511 233.328 34.3154 232.977 35.0181C232.626 35.7208 232.122 36.3172 231.465 36.8072C230.809 37.288 230.023 37.6533 229.107 37.9029C228.192 38.1526 227.17 38.2774 226.042 38.2774C225.007 38.2774 223.985 38.1479 222.977 37.889C221.979 37.6209 221.072 37.2141 220.259 36.6686C219.445 36.1138 218.793 35.4064 218.303 34.5466C217.822 33.6774 217.582 32.6465 217.582 31.4537L222.464 31.4537C222.464 32.0455 222.543 32.5448 222.7 32.9516C222.857 33.3584 223.088 33.6867 223.393 33.9363C223.698 34.1767 224.073 34.3524 224.517 34.4633C224.961 34.565 225.469 34.6159 226.042 34.6159C226.662 34.6159 227.161 34.5281 227.54 34.3524C227.919 34.1675 228.197 33.9271 228.372 33.6312C228.548 33.3261 228.636 32.9932 228.636 32.6326ZM257.277 32.6326C257.277 32.3182 257.231 32.0362 257.138 31.7866C257.046 31.5277 256.875 31.2873 256.625 31.0654C256.375 30.8435 256.015 30.6216 255.543 30.3996C255.081 30.1685 254.471 29.9281 253.712 29.6784C252.825 29.3826 251.97 29.0497 251.147 28.6799C250.324 28.3008 249.589 27.8616 248.941 27.3623C248.294 26.8537 247.781 26.262 247.402 25.587C247.023 24.9028 246.833 24.1076 246.833 23.2015C246.833 22.3324 247.027 21.5511 247.416 20.8576C247.804 20.1549 248.345 19.5585 249.038 19.0685C249.741 18.5692 250.564 18.1901 251.507 17.9312C252.45 17.663 253.481 17.529 254.6 17.529C256.079 17.529 257.383 17.7879 258.511 18.3056C259.648 18.8142 260.536 19.54 261.174 20.4831C261.821 21.417 262.145 22.5219 262.145 23.7979L257.305 23.7979C257.305 23.2893 257.198 22.8409 256.986 22.4526C256.782 22.0642 256.472 21.7591 256.056 21.5372C255.64 21.3153 255.118 21.2043 254.489 21.2043C253.879 21.2043 253.366 21.2968 252.95 21.4817C252.534 21.6666 252.219 21.9163 252.006 22.2306C251.794 22.5358 251.687 22.8733 251.687 23.2431C251.687 23.5482 251.771 23.8256 251.937 24.0753C252.113 24.3157 252.358 24.5422 252.672 24.7549C252.996 24.9675 253.384 25.1709 253.837 25.3651C254.3 25.5593 254.817 25.7488 255.391 25.9337C256.463 26.2758 257.416 26.6596 258.248 27.0849C259.089 27.501 259.796 27.9771 260.37 28.5134C260.952 29.0405 261.391 29.6415 261.687 30.3164C261.992 30.9914 262.145 31.7542 262.145 32.6049C262.145 33.511 261.969 34.3154 261.618 35.0181C261.267 35.7208 260.763 36.3172 260.106 36.8072C259.45 37.288 258.664 37.6533 257.748 37.9029C256.833 38.1526 255.811 38.2774 254.683 38.2774C253.648 38.2774 252.626 38.1479 251.618 37.889C250.62 37.6209 249.713 37.2141 248.9 36.6686C248.086 36.1138 247.434 35.4064 246.944 34.5466C246.463 33.6774 246.223 32.6465 246.223 31.4537L251.105 31.4537C251.105 32.0455 251.184 32.5448 251.341 32.9516C251.498 33.3584 251.729 33.6867 252.034 33.9363C252.339 34.1767 252.714 34.3524 253.158 34.4633C253.601 34.565 254.11 34.6159 254.683 34.6159C255.303 34.6159 255.802 34.5281 256.181 34.3524C256.56 34.1675 256.838 33.9271 257.013 33.6312C257.189 33.3261 257.277 32.9932 257.277 32.6326ZM275.106 22.0503L270.183 38L264.954 38L272.374 17.8064L275.689 17.8064L275.106 22.0503ZM279.184 38L274.246 22.0503L273.608 17.8064L276.965 17.8064L284.426 38L279.184 38ZM278.99 30.469V34.2276L268.629 34.2276V30.469L278.99 30.469Z" fill="#E2E4DD"/>
<rect width="64.0859" height="54.3179"/>
</g>
<use xlink:href="#pattern0_507_1086_inner" transform="translate(-142.5 70)"/>
<use xlink:href="#pattern0_507_1086_inner" transform="translate(142.5 70)"/>
</pattern></defs>
</svg>
